# xmcd
#
# Track frame offsets: 
#        150
#        15880
#        26795
#        39925
#        59694
#        75271
#        88290
#        104127
#        117933
#        133165
#        151048
#        164666
#        181800
#        198575
#        215030
#        232812
#        248210
#        267298
#        282764
#        298078
#        312920
#        327675
#
# Disc length: 4607 seconds
#
# Revision: 5
# Processed by: cddbd v1.5.2PL0 Copyright (c) Steve Scherf et al.
# Submitted via: ExactAudioCopyFreeDBPlugin 1.0
#
DISCID=4111fd16
DTITLE=Roger Whittaker - 1996 - A Perfect Day, His Greatest Hits and Mor
DTITLE=e
DYEAR=1996
DGENRE=Easy Listening
TTITLE0=A Perfect Day
TTITLE1=New World In The Morning
TTITLE2=Smile
TTITLE3=Hello Young Lovers
TTITLE4=It's Impossible
TTITLE5=There, I've Said It Again
TTITLE6=Raindrops Keep Fallin' On My Head
TTITLE7=Anytime
TTITLE8=Blueberry Hill
TTITLE9=Everything I Do, I Do It For You
TTITLE10=A Whole New World
TTITLE11=Beauty And Tthe Beast
TTITLE12=When I Fall In Love
TTITLE13=Somewhere Out There
TTITLE14=I Will Always Love You
TTITLE15=Ol' Man River
TTITLE16=If Ever I Would Leave You
TTITLE17=Summertime
TTITLE18=Make Believe
TTITLE19=I Don't Believe In If Anymore
TTITLE20=Durham Town
TTITLE21=The Last Farewell
EXTD=
EXTT0=
EXTT1=
EXTT2=
EXTT3=
EXTT4=
EXTT5=
EXTT6=
EXTT7=
EXTT8=
EXTT9=
EXTT10=
EXTT11=
EXTT12=
EXTT13=
EXTT14=
EXTT15=
EXTT16=
EXTT17=
EXTT18=
EXTT19=
EXTT20=
EXTT21=
PLAYORDER=
